Coordinates
version=1
nRows=31
nColumns=38
inDegrees=no

Units are S.I. units (second, meters, Newtons, ...)
If the header above contains a line with 'inDegrees', this indicates whether rotational values are in degrees (yes) or radians (no).

endheader
time	pelvis_tilt	pelvis_list	pelvis_rotation	pelvis_tx	pelvis_ty	pelvis_tz	hip_flexion_r	hip_adduction_r	hip_rotation_r	knee_angle_r	ankle_angle_r	subtalar_angle_r	mtp_angle_r	hip_flexion_l	hip_adduction_l	hip_rotation_l	knee_angle_l	ankle_angle_l	subtalar_angle_l	mtp_angle_l	lumbar_extension	lumbar_bending	lumbar_rotation	arm_flex_r	arm_add_r	arm_rot_r	elbow_flex_r	pro_sup_r	wrist_flex_r	wrist_dev_r	arm_flex_l	arm_add_l	arm_rot_l	elbow_flex_l	pro_sup_l	wrist_flex_l	wrist_dev_l
0.96	0.890545	1.48232	0.761672	0.684886	0.813932	1.05793	-0.0507557	0.0778888	-0.215538	0.146408	-0.0899082	0	0	0.385724	-0.127907	-0.179795	0.819921	0.00528369	0	0	-0.312574	0.0569287	0.0701362	-0.10271	-0.42398	0.410586	0.607076	0.986226	0	0	0.0309882	-0.446009	0.596702	0.52295	1.1871	0	0
0.97	0.879878	1.48328	0.764882	0.684826	0.825652	1.05759	-0.0650286	0.076014	-0.214185	0.142235	-0.0918003	0	0	0.385856	-0.125504	-0.193024	0.749472	-0.00642103	0	0	-0.314042	0.053233	0.0747922	-0.102552	-0.426054	0.406375	0.612822	0.988135	0	0	0.0267523	-0.443607	0.590045	0.521287	1.18412	0	0
0.98	0.720248	1.48232	0.916631	0.684777	0.837426	1.05513	-0.0708979	0.0523183	-0.203493	0.141143	-0.0899612	0	0	0.395714	-0.112893	-0.207639	0.677563	-0.0211901	0	0	-0.301145	0.0405515	0.0770587	-0.107993	-0.426267	0.399885	0.620941	0.992718	0	0	0.0183801	-0.44556	0.585442	0.523781	1.18101	0	0
0.99	0.702062	1.48179	0.928051	0.684553	0.849504	1.05431	-0.0846293	0.0507509	-0.201836	0.136011	-0.0896242	0	0	0.393132	-0.110015	-0.226131	0.597744	-0.0397503	0	0	-0.2998	0.0372672	0.0806319	-0.10672	-0.42734	0.399092	0.62292	0.998287	0	0	0.0146725	-0.443971	0.583368	0.520696	1.17811	0	0
1	0.848538	1.48498	0.775686	0.6842	0.861744	1.05537	-0.109445	0.0715284	-0.208074	0.124047	-0.0949475	0	0	0.374412	-0.116451	-0.250522	0.511254	-0.0654961	0	0	-0.315798	0.042933	0.0866476	-0.100635	-0.430517	0.399062	0.624475	0.999605	0	0	0.016714	-0.439335	0.581767	0.514581	1.17708	0	0
1.01	0.843731	1.48564	0.773265	0.683864	0.87391	1.05412	-0.123693	0.0693839	-0.208262	0.120478	-0.0962661	0	0	0.367485	-0.112374	-0.274138	0.428515	-0.0858996	0	0	-0.317258	0.039707	0.0916093	-0.101654	-0.432671	0.394707	0.631042	0.999517	0	0	0.0143045	-0.438739	0.580255	0.513579	1.17719	0	0
1.02	0.83572	1.48543	0.772899	0.683465	0.885949	1.05252	-0.135584	0.0665559	-0.207264	0.120117	-0.095916	0	0	0.361204	-0.107982	-0.297713	0.347443	-0.105427	0	0	-0.318379	0.0369683	0.097942	-0.103628	-0.435904	0.389467	0.639839	0.999739	0	0	0.0121491	-0.438325	0.579081	0.51379	1.17769	0	0
1.03	0.804576	1.4815	0.797428	0.682793	0.898151	1.05031	-0.143522	0.064236	-0.203806	0.121067	-0.0939474	0	0	0.360316	-0.102763	-0.313492	0.271118	-0.119141	0	0	-0.314305	0.0362036	0.102726	-0.10571	-0.43875	0.385521	0.64624	1.0009	0	0	0.00892602	-0.437582	0.57774	0.513224	1.17922	0	0
1.04	0.76673	1.47506	0.830873	0.681901	0.910563	1.04769	-0.14918	0.0633621	-0.200518	0.121794	-0.0913475	0	0	0.362993	-0.0969398	-0.320122	0.201052	-0.129043	0	0	-0.306749	0.0370547	0.105612	-0.108121	-0.440823	0.382345	0.650914	1.0021	0	0	0.00443574	-0.437354	0.575758	0.513183	1.18195	0	0
1.05	0.725634	1.46627	0.868122	0.681022	0.923006	1.04472	-0.151908	0.0638799	-0.195338	0.1226	-0.0886893	0	0	0.368994	-0.0913883	-0.318795	0.138054	-0.137777	0	0	-0.296481	0.0388231	0.107919	-0.110498	-0.442118	0.379419	0.654436	1.00324	0	0	-0.000735718	-0.437554	0.573039	0.51323	1.18606	0	0
1.06	0.69357	1.457	0.897319	0.680015	0.935635	1.04162	-0.153881	0.064871	-0.191531	0.12457	-0.0863647	0	0	0.375603	-0.0859552	-0.31155	0.0813089	-0.145141	0	0	-0.285651	0.0413268	0.109085	-0.112882	-0.442899	0.376277	0.657249	1.00327	0	0	-0.00672804	-0.438108	0.569375	0.513398	1.19118	0	0
1.07	0.555922	1.44379	1.0314	0.679186	0.948291	1.03638	-0.145456	0.0429645	-0.183481	0.139168	-0.0771678	0	0	0.395728	-0.0711322	-0.301575	0.0331196	-0.152042	0	0	-0.2593	0.0338286	0.107794	-0.121526	-0.440609	0.368816	0.662818	1.0028	0	0	-0.0187713	-0.443314	0.563168	0.518382	1.19702	0	0
1.08	0.540724	1.43547	1.04488	0.678221	0.961255	1.03329	-0.146059	0.0434576	-0.182048	0.146732	-0.0727065	0	0	0.403636	-0.0666668	-0.293686	0	-0.15491	0	0	-0.249166	0.035138	0.107286	-0.123076	-0.439101	0.366791	0.663589	1.00202	0	0	-0.0256947	-0.445545	0.558505	0.518859	1.20059	0	0
1.09	0.530753	1.42761	1.05401	0.677181	0.974372	1.0303	-0.147285	0.0440618	-0.179801	0.155861	-0.0683596	0	0	0.413494	-0.0635978	-0.288671	0	-0.151723	0	0	-0.239783	0.0365128	0.105789	-0.124053	-0.436898	0.365123	0.663434	1.00017	0	0	-0.0329024	-0.44752	0.551495	0.518596	1.20566	0	0
1.1	0.529155	1.42372	1.0549	0.676052	0.987714	1.02783	-0.152426	0.0434639	-0.178019	0.166333	-0.0667178	0	0	0.419614	-0.0599935	-0.28627	0	-0.142266	0	0	-0.235467	0.0365638	0.104274	-0.123734	-0.434499	0.364648	0.662708	0.998163	0	0	-0.0388912	-0.44971	0.544533	0.517901	1.21023	0	0
1.11	0.538227	1.42311	1.04499	0.674958	1.00129	1.02597	-0.161369	0.0422512	-0.17642	0.176918	-0.0675233	0	0	0.422934	-0.057152	-0.287101	0	-0.134252	0	0	-0.235804	0.0358629	0.103787	-0.122557	-0.431339	0.364852	0.661097	0.996158	0	0	-0.0428275	-0.452003	0.539247	0.516071	1.21266	0	0
1.12	0.550981	1.42523	1.03135	0.673876	1.01515	1.02452	-0.172097	0.039902	-0.175105	0.189802	-0.070218	0	0	0.424341	-0.0545457	-0.290741	0	-0.128489	0	0	-0.239009	0.033953	0.103871	-0.121346	-0.427099	0.364411	0.658677	0.992325	0	0	-0.0458928	-0.454578	0.534074	0.513934	1.21486	0	0
1.13	0.569963	1.42966	1.01177	0.672809	1.02935	1.02343	-0.184697	0.0369616	-0.174035	0.204491	-0.0758251	0	0	0.423667	-0.0527252	-0.295573	0.0107723	-0.126871	0	0	-0.244698	0.0313342	0.10457	-0.120322	-0.421793	0.363151	0.655143	0.985878	0	0	-0.0480244	-0.457522	0.529492	0.511735	1.21779	0	0
1.14	0.591028	1.43483	0.990382	0.67177	1.04389	1.0225	-0.196477	0.0336514	-0.17241	0.222334	-0.0843047	0	0	0.422573	-0.0517272	-0.299181	0.0470591	-0.128894	0	0	-0.250756	0.0281407	0.105908	-0.119551	-0.416096	0.363162	0.650297	0.979064	0	0	-0.0498225	-0.461046	0.525686	0.509927	1.22118	0	0
1.15	0.71755	1.44587	0.865948	0.670215	1.05907	1.02382	-0.218258	0.0447261	-0.179216	0.242096	-0.10032	0	0	0.404647	-0.056976	-0.296639	0.0802501	-0.138072	0	0	-0.272795	0.0329767	0.107616	-0.113232	-0.412102	0.367942	0.641107	0.971008	0	0	-0.0466304	-0.460614	0.522811	0.5037	1.225	0	0
1.16	0.732203	1.45148	0.850248	0.669079	1.07422	1.02301	-0.224492	0.0374168	-0.175016	0.268104	-0.113246	0	0	0.400637	-0.0521305	-0.287692	0.110102	-0.15151	0	0	-0.276473	0.0278566	0.109541	-0.113556	-0.405105	0.368224	0.633585	0.964131	0	0	-0.049497	-0.464353	0.5196	0.50198	1.2279	0	0
1.17	0.739831	1.45637	0.841823	0.66774	1.08958	1.02242	-0.227045	0.0293382	-0.166791	0.298393	-0.129452	0	0	0.397219	-0.0453653	-0.27379	0.132087	-0.174805	0	0	-0.277811	0.0223701	0.110198	-0.112035	-0.396576	0.370646	0.621331	0.957045	0	0	-0.0527889	-0.467406	0.517391	0.498161	1.23048	0	0
1.18	0.707314	1.45918	0.874001	0.66632	1.10487	1.02166	-0.221415	0.0180424	-0.155802	0.336287	-0.150465	0	0	0.399622	-0.0369071	-0.256083	0.153089	-0.202958	0	0	-0.273128	0.0144217	0.108544	-0.108847	-0.386332	0.376331	0.605125	0.94907	0	0	-0.0573268	-0.470548	0.515438	0.49306	1.23153	0	0
1.19	0.664763	1.46054	0.917185	0.66469	1.12005	1.02117	-0.210305	0.0065424	-0.14198	0.380427	-0.175622	0	0	0.404338	-0.03033	-0.237242	0.177946	-0.216841	0	0	-0.266664	0.00696765	0.105756	-0.105123	-0.376172	0.383181	0.588217	0.941053	0	0	-0.0616664	-0.472575	0.513003	0.487378	1.2303	0	0
1.2	0.611631	1.46096	0.971862	0.662815	1.13504	1.02085	-0.194097	-0.00600556	-0.127553	0.429713	-0.207402	0	0	0.41037	-0.0248471	-0.218354	0.209491	-0.211149	0	0	-0.259103	-1.66969e-05	0.102259	-0.102687	-0.366783	0.388615	0.573551	0.931426	0	0	-0.065535	-0.473463	0.510221	0.481977	1.22729	0	0
1.21	0.553775	1.46121	1.03249	0.660684	1.14971	1.02073	-0.174489	-0.0193188	-0.113762	0.482081	-0.246015	0	0	0.416307	-0.0188371	-0.199582	0.246158	-0.193024	0	0	-0.252226	-0.0063202	0.0981553	-0.101201	-0.358799	0.392808	0.561757	0.92082	0	0	-0.0676936	-0.473529	0.509098	0.476919	1.2232	0	0
1.22	0.489706	1.46133	1.1004	0.65839	1.164	1.02081	-0.152176	-0.0330871	-0.100084	0.536703	-0.292251	0	0	0.421484	-0.0111626	-0.182179	0.28391	-0.171621	0	0	-0.246008	-0.0122967	0.0935063	-0.0992153	-0.352032	0.397848	0.550669	0.90941	0	0	-0.0677882	-0.473545	0.511525	0.472682	1.21755	0	0
1.23	0.429426	1.46317	1.16411	0.656181	1.17788	1.02121	-0.129864	-0.0466798	-0.0852925	0.593671	-0.333312	0	0	0.422652	-0.00250307	-0.17092	0.318177	-0.154961	0	0	-0.244178	-0.0181624	0.0901861	-0.0977574	-0.34684	0.400196	0.543504	0.900423	0	0	-0.065498	-0.474392	0.516481	0.471877	1.21119	0	0
1.24	0.371138	1.46369	1.22467	0.654126	1.19143	1.02157	-0.103215	-0.0579321	-0.0682674	0.650191	-0.382376	0	0	0.423285	0.00575134	-0.164942	0.348179	-0.136408	0	0	-0.242304	-0.0228384	0.0886841	-0.0969718	-0.343341	0.401986	0.538802	0.891102	0	0	-0.0618261	-0.476009	0.526342	0.473638	1.20179	0	0
1.25	0.327022	1.46385	1.2688	0.652283	1.20464	1.02194	-0.071475	-0.0650745	-0.0490842	0.701124	-0.442986	0	0	0.421976	0.0120054	-0.164074	0.373931	-0.118546	0	0	-0.241895	-0.0257682	0.0903547	-0.0978431	-0.342486	0.401176	0.539088	0.883162	0	0	-0.0568364	-0.478066	0.539156	0.478609	1.1917	0	0
1.26	0.299809	1.46471	1.29423	0.650579	1.21769	1.02249	-0.0416441	-0.0689166	-0.027451	0.750268	-0.509905	0	0	0.41695	0.016189	-0.166844	0.395192	-0.100603	0	0	-0.243172	-0.0269882	0.0946904	-0.100268	-0.344202	0.398433	0.54358	0.877777	0	0	-0.0502309	-0.480436	0.556289	0.485723	1.18051	0	0
